<svg xmlns="http://www.w3.org/2000/svg" xmlns:xlink="http://www.w3.org/1999/xlink" width="571.025" height="398.617" viewBox="0 0 571.025 398.617">
  <defs>
    <linearGradient id="linear-gradient" x1="2024.027" y1="1" x2="2024.027" gradientUnits="objectBoundingBox">
      <stop offset="0" stop-color="gray" stop-opacity="0.251"/>
      <stop offset="0.54" stop-color="gray" stop-opacity="0.122"/>
      <stop offset="1" stop-color="gray" stop-opacity="0.102"/>
    </linearGradient>
    <linearGradient id="linear-gradient-2" x1="-0.328" y1="1" x2="-0.328" y2="0" xlink:href="#linear-gradient"/>
    <linearGradient id="linear-gradient-3" x1="-1.465" y1="1" x2="-1.465" y2="0" xlink:href="#linear-gradient"/>
    <linearGradient id="linear-gradient-4" x1="13.984" y1="1" x2="13.984" y2="0" xlink:href="#linear-gradient"/>
    <linearGradient id="linear-gradient-5" x1="14.718" y1="1" x2="14.718" y2="0" xlink:href="#linear-gradient"/>
  </defs>
  <g id="undraw_goal_0v5v" transform="translate(0.005 0.005)">
    <path id="Path_3" data-name="Path 3" d="M27.992,85.071c1.856,15.772,14.874,28.262,17.963,43.839a42.506,42.506,0,0,1,.709,6.187c.444,8.947-1.327,18.078-.414,27.039,1.7,16.805,11.915,29.938,24.884,41.32,9.81,8.587,21.2,16.142,31.67,23.452,26.665,18.627,51.673,42.143,62.626,72.77,7.3,20.423,7.859,42.617,13.218,63.634s17.564,42.522,38.191,49.223c22.139,7.2,46.534-4.8,69.317-.06,24.449,5.089,41.789,28.2,65.914,34.723,30.652,8.293,61.2-12.085,92.663-16.331,15.109-2.041,30.487-.309,45.676-1.617a114.8,114.8,0,0,0,47.936-15.229c4.99-2.929,10.034-6.527,12.354-11.845,2-4.6,1.692-9.835,1.078-14.809-2.3-18.462-8.1-38.53,1.033-54.757,8.428-14.969,28.85-25.677,25.822-42.577-1.821-10.174-11.821-16.526-21.091-21.081-19.12-9.4-39.488-16.75-56.578-29.439-12.225-9.091-22.753-21.775-27.244-36.04a48.055,48.055,0,0,1-2.235-17.683c.629-9.431,3.892-20.019-1.8-27.568-2.465-3.273-6.242-5.284-10.039-6.821-14.32-5.788-30.228-6.122-45.117-10.234a62.236,62.236,0,0,1-14.6-6.067c-9.081-5.259-16.391-13.008-18.158-23.122-1.033-5.928-.115-12.4-3.074-17.639-4.99-8.882-14.854-12.594-25.872-13.8-13.637-1.5-29.08.843-39.419,2l-1.033.11c-13.278,1.382-26.445-1.557-39.384-5.988-13.971-4.745-27.628-11.2-40.915-15.792q-1.871-.649-3.732-1.242a191.105,191.105,0,0,0-29.7-6.911,194.159,194.159,0,0,0-42.911-1.657,190.368,190.368,0,0,0-21.645,2.814q-3.154.6-6.3,1.282c-12.185,2.61-24.3,5.8-36.734,5.988H88.372c-14.824-.254-29.983-4.022-44.049.529-6.4,2.081-12.529,6.172-15.1,12.379A22.147,22.147,0,0,0,27.992,85.071Z" transform="translate(-27.8 -50.55)" fill="#6c63ff"/>
    <path id="Path_4" data-name="Path 4" d="M64.937,162.369H77.746A16.965,16.965,0,0,1,88.893,147.4a11.975,11.975,0,1,1,11.551,0,16.965,16.965,0,0,1,11.147,14.969h.11a16.965,16.965,0,0,1,11.117-14.47,11.975,11.975,0,1,1,17.549-12.679,16.93,16.93,0,0,1,4.9-2.789,11.975,11.975,0,1,1,11.551,0A16.965,16.965,0,0,1,168.009,148.4v13.971H173.5V151.392a16.965,16.965,0,0,1,11.187-15.967,11.975,11.975,0,1,1,11.551,0,17.015,17.015,0,0,1,9.78,9.2,17.01,17.01,0,0,1,8.123-6.207,11.975,11.975,0,1,1,11.551,0,17.02,17.02,0,0,1,8.692,7.1v-2.111a16.965,16.965,0,0,1,11.187-15.967,11.975,11.975,0,1,1,11.551,0,16.965,16.965,0,0,1,11.187,15.967v18.961h5.988a17.01,17.01,0,0,1,9.675-8.981,11.975,11.975,0,1,1,11.551,0,16.9,16.9,0,0,1,3.373,1.672,16.965,16.965,0,0,1,11.047-13.647,11.975,11.975,0,1,1,11.551,0,17,17,0,0,1,10.478,11.177,16.964,16.964,0,0,1,6.9-4.69,11.975,11.975,0,1,1,11.551,0,16.93,16.93,0,0,1,5.03,2.894,17.015,17.015,0,0,1,9.88-9.381,11.975,11.975,0,1,1,11.551,0,16.965,16.965,0,0,1,11.187,15.967v4.99H418.2a62.238,62.238,0,0,0,14.595,6.062c14.889,4.112,30.8,4.446,45.117,10.234,3.8,1.537,7.574,3.548,10.039,6.821,5.688,7.549,2.425,18.138,1.8,27.568a48.054,48.054,0,0,0,2.22,17.674H89.407c-12.973-11.357-23.182-24.514-24.884-41.32C63.635,180.452,65.381,171.321,64.937,162.369Z" transform="translate(-46.074 -77.821)" opacity="0.2"/>
    <path id="Path_5" data-name="Path 5" d="M965.842,74.465V268.06l-9.979-6.487V74.465h-5.988L947.38,255.087,937.9,248.1,944.387,71.97" transform="translate(-469.92 -36.062)" fill="none" stroke="#e0e0e0" stroke-miterlimit="10" stroke-width="1"/>
    <line id="Line_3" data-name="Line 3" x1="40.416" y2="2.245" transform="translate(467.985 52.374)" fill="none" stroke="#e0e0e0" stroke-miterlimit="10" stroke-width="1"/>
    <line id="Line_4" data-name="Line 4" x1="37.922" y2="1.497" transform="translate(467.985 62.354)" fill="none" stroke="#e0e0e0" stroke-miterlimit="10" stroke-width="1"/>
    <line id="Line_5" data-name="Line 5" x1="37.922" y2="0.998" transform="translate(467.985 74.329)" fill="none" stroke="#e0e0e0" stroke-miterlimit="10" stroke-width="1"/>
    <line id="Line_6" data-name="Line 6" x1="37.922" y2="1.497" transform="translate(467.985 85.306)" fill="none" stroke="#e0e0e0" stroke-miterlimit="10" stroke-width="1"/>
    <line id="Line_7" data-name="Line 7" x1="39.419" transform="translate(466.488 97.781)" fill="none" stroke="#e0e0e0" stroke-miterlimit="10" stroke-width="1"/>
    <line id="Line_8" data-name="Line 8" x1="40.416" y1="1.497" transform="translate(465.49 108.758)" fill="none" stroke="#e0e0e0" stroke-miterlimit="10" stroke-width="1"/>
    <line id="Line_9" data-name="Line 9" x1="40.416" y1="1.996" transform="translate(465.49 119.735)" fill="none" stroke="#e0e0e0" stroke-miterlimit="10" stroke-width="1"/>
    <line id="Line_10" data-name="Line 10" x1="40.416" y1="2.994" transform="translate(465.49 131.212)" fill="none" stroke="#e0e0e0" stroke-miterlimit="10" stroke-width="1"/>
    <line id="Line_11" data-name="Line 11" x1="42.911" y1="3.992" transform="translate(463.993 141.191)" fill="none" stroke="#e0e0e0" stroke-miterlimit="10" stroke-width="1"/>
    <line id="Line_12" data-name="Line 12" x1="42.911" y1="6.487" transform="translate(463.993 151.17)" fill="none" stroke="#e0e0e0" stroke-miterlimit="10" stroke-width="1"/>
    <line id="Line_13" data-name="Line 13" x1="44.408" y1="7.983" transform="translate(462.497 164.143)" fill="none" stroke="#e0e0e0" stroke-miterlimit="10" stroke-width="1"/>
    <line id="Line_14" data-name="Line 14" x1="44.408" y1="12.973" transform="translate(462.497 175.62)" fill="none" stroke="#e0e0e0" stroke-miterlimit="10" stroke-width="1"/>
    <line id="Line_15" data-name="Line 15" x1="46.903" y1="18.462" transform="translate(461 187.096)" fill="none" stroke="#e0e0e0" stroke-miterlimit="10" stroke-width="1"/>
    <line id="Line_16" data-name="Line 16" x1="46.903" y1="22.953" transform="translate(461 198.073)" fill="none" stroke="#e0e0e0" stroke-miterlimit="10" stroke-width="1"/>
    <path id="Path_6" data-name="Path 6" d="M626.8,73.966l-7.984,170.143H608.343L614.83,73.966H603.353l-7.484,170.143H584.393l6.487-170.143H576.908l-4.99,170.143H559.444l5.489-168.646H551.96l-2.994,168.646H537.49l3.493-170.143H529.506l-2.495,170.143H516.034l2.495-170.143H505.556V244.109H492.582V73.966H480.607l2,170.143H472.125L469.131,73.966H457.156l3.992,170.143H450.669l-4.99-170.143H435.2l3.992,170.143h-9.48L422.228,73.966h-9.979l7.983,170.143h-9.979L399.275,73.966H387.3l13.971,170.143h-9.48L378.319,73.966h-9.48l13.971,170.143H372.331L358.859,71.97h-9.48l15.468,172.139h-9.979L338.9,71.97" transform="translate(-169.802 -36.062)" fill="none" stroke="#e0e0e0" stroke-miterlimit="10" stroke-width="1"/>
    <path id="Path_7" data-name="Path 7" d="M273.864,74.465,288.833,247.1l-7.485,5.988L269.872,74.465h-7.983l7.983,185.112L258.4,267.062,253.91,71.97" transform="translate(-127.219 -36.062)" fill="none" stroke="#e0e0e0" stroke-miterlimit="10" stroke-width="1"/>
    <line id="Line_17" data-name="Line 17" x2="45.905" transform="translate(115.713 57.863)" fill="none" stroke="#e0e0e0" stroke-miterlimit="10" stroke-width="1"/>
    <line id="Line_18" data-name="Line 18" x2="45.905" transform="translate(115.713 70.337)" fill="none" stroke="#e0e0e0" stroke-miterlimit="10" stroke-width="1"/>
    <line id="Line_19" data-name="Line 19" y1="1.497" x2="45.905" transform="translate(115.713 82.812)" fill="none" stroke="#e0e0e0" stroke-miterlimit="10" stroke-width="1"/>
    <line id="Line_20" data-name="Line 20" y1="2.495" x2="47.901" transform="translate(115.713 93.789)" fill="none" stroke="#e0e0e0" stroke-miterlimit="10" stroke-width="1"/>
    <line id="Line_21" data-name="Line 21" y1="1.996" x2="47.901" transform="translate(115.713 107.76)" fill="none" stroke="#e0e0e0" stroke-miterlimit="10" stroke-width="1"/>
    <line id="Line_22" data-name="Line 22" y1="2.495" x2="49.897" transform="translate(115.713 121.731)" fill="none" stroke="#e0e0e0" stroke-miterlimit="10" stroke-width="1"/>
    <line id="Line_23" data-name="Line 23" y1="4.99" x2="49.897" transform="translate(115.713 133.207)" fill="none" stroke="#e0e0e0" stroke-miterlimit="10" stroke-width="1"/>
    <line id="Line_24" data-name="Line 24" y1="11.975" x2="49.897" transform="translate(115.713 142.189)" fill="none" stroke="#e0e0e0" stroke-miterlimit="10" stroke-width="1"/>
    <line id="Line_25" data-name="Line 25" y1="17.464" x2="51.893" transform="translate(115.713 150.671)" fill="none" stroke="#e0e0e0" stroke-miterlimit="10" stroke-width="1"/>
    <line id="Line_26" data-name="Line 26" y1="19.959" x2="51.893" transform="translate(115.713 162.647)" fill="none" stroke="#e0e0e0" stroke-miterlimit="10" stroke-width="1"/>
    <line id="Line_27" data-name="Line 27" y1="21.68" x2="51.658" transform="translate(114.216 174.896)" fill="none" stroke="#e0e0e0" stroke-miterlimit="10" stroke-width="1"/>
    <line id="Line_28" data-name="Line 28" y1="26.944" x2="53.39" transform="translate(114.216 185.599)" fill="none" stroke="#e0e0e0" stroke-miterlimit="10" stroke-width="1"/>
    <line id="Line_29" data-name="Line 29" y1="30.437" x2="54.887" transform="translate(114.216 196.576)" fill="none" stroke="#e0e0e0" stroke-miterlimit="10" stroke-width="1"/>
    <line id="Line_30" data-name="Line 30" x1="306.367" y2="2.495" transform="translate(161.618 52.374)" fill="none" stroke="#e0e0e0" stroke-miterlimit="10" stroke-width="1"/>
    <line id="Line_31" data-name="Line 31" x1="306.367" y2="2.495" transform="translate(161.369 61.356)" fill="none" stroke="#e0e0e0" stroke-miterlimit="10" stroke-width="1"/>
    <line id="Line_32" data-name="Line 32" x1="306.367" y2="2.495" transform="translate(161.119 70.337)" fill="none" stroke="#e0e0e0" stroke-miterlimit="10" stroke-width="1"/>
    <line id="Line_33" data-name="Line 33" x1="306.367" y2="2.495" transform="translate(160.87 79.319)" fill="none" stroke="#e0e0e0" stroke-miterlimit="10" stroke-width="1"/>
    <line id="Line_34" data-name="Line 34" x1="306.367" y2="2.495" transform="translate(160.62 88.3)" fill="none" stroke="#e0e0e0" stroke-miterlimit="10" stroke-width="1"/>
    <line id="Line_35" data-name="Line 35" x1="302.375" y2="2.495" transform="translate(164.363 97.282)" fill="none" stroke="#e0e0e0" stroke-miterlimit="10" stroke-width="1"/>
    <line id="Line_36" data-name="Line 36" x1="302.375" y2="2.495" transform="translate(164.113 106.263)" fill="none" stroke="#e0e0e0" stroke-miterlimit="10" stroke-width="1"/>
    <line id="Line_37" data-name="Line 37" x1="302.375" y2="2.495" transform="translate(163.864 115.245)" fill="none" stroke="#e0e0e0" stroke-miterlimit="10" stroke-width="1"/>
    <line id="Line_38" data-name="Line 38" x1="302.375" y2="2.495" transform="translate(163.614 124.226)" fill="none" stroke="#e0e0e0" stroke-miterlimit="10" stroke-width="1"/>
    <line id="Line_39" data-name="Line 39" x1="299.381" y2="2.495" transform="translate(166.359 133.207)" fill="none" stroke="#e0e0e0" stroke-miterlimit="10" stroke-width="1"/>
    <line id="Line_40" data-name="Line 40" x1="299.381" y2="2.495" transform="translate(166.109 142.189)" fill="none" stroke="#e0e0e0" stroke-miterlimit="10" stroke-width="1"/>
    <line id="Line_41" data-name="Line 41" x1="299.381" y2="2.495" transform="translate(165.86 151.17)" fill="none" stroke="#e0e0e0" stroke-miterlimit="10" stroke-width="1"/>
    <line id="Line_42" data-name="Line 42" x1="297.385" y2="2.495" transform="translate(167.606 160.152)" fill="none" stroke="#e0e0e0" stroke-miterlimit="10" stroke-width="1"/>
    <line id="Line_43" data-name="Line 43" x1="297.385" y2="2.495" transform="translate(167.357 169.133)" fill="none" stroke="#e0e0e0" stroke-miterlimit="10" stroke-width="1"/>
    <line id="Line_44" data-name="Line 44" x1="295.888" y2="2.495" transform="translate(168.604 178.115)" fill="none" stroke="#e0e0e0" stroke-miterlimit="10" stroke-width="1"/>
    <line id="Line_45" data-name="Line 45" x1="295.888" y2="2.495" transform="translate(168.355 187.096)" fill="none" stroke="#e0e0e0" stroke-miterlimit="10" stroke-width="1"/>
    <line id="Line_46" data-name="Line 46" x1="295.888" y2="2.495" transform="translate(168.105 196.077)" fill="none" stroke="#e0e0e0" stroke-miterlimit="10" stroke-width="1"/>
    <path id="Path_8" data-name="Path 8" d="M624.094,449.393,578.688,416.96H283.8L231.91,449.393" transform="translate(-116.197 -208.912)" fill="none" stroke="#e0e0e0" stroke-miterlimit="10" stroke-width="3"/>
    <path id="Path_9" data-name="Path 9" d="M1051.35,363.166s1.153-34.06,19.574-53.295a51.633,51.633,0,0,0,14.161-29.439,86.79,86.79,0,0,0,.434-15.872" transform="translate(-540.633 -157.778)" fill="none" stroke="#535461" stroke-miterlimit="10" stroke-width="2"/>
    <path id="Path_10" data-name="Path 10" d="M1128.833,230.546c-1.262,3.8-11.8,12.544-11.8,12.544s-3.228-13.312-1.966-17.115a7.255,7.255,0,1,1,13.772,4.566Z" transform="translate(-572.41 -135.954)" fill="#6c63ff"/>
    <path id="Path_11" data-name="Path 11" d="M1134.966,276.943c-3.124,2.495-16.726,4.116-16.726,4.116s4.526-12.928,7.649-15.433a7.254,7.254,0,1,1,9.077,11.318Z" transform="translate(-574.147 -157.512)" fill="#6c63ff"/>
    <path id="Path_12" data-name="Path 12" d="M1110.256,347.234c-3.962.584-16.516-4.89-16.516-4.89s10.434-8.877,14.4-9.48a7.255,7.255,0,0,1,2.121,14.35Z" transform="translate(-561.872 -191.972)" fill="#6c63ff"/>
    <path id="Path_13" data-name="Path 13" d="M1078.575,397.587c-3.807,1.247-17.1-2.031-17.1-2.031s8.782-10.508,12.589-11.761a7.254,7.254,0,1,1,4.516,13.788Z" transform="translate(-545.704 -217.337)" fill="#6c63ff"/>
    <path id="Path_14" data-name="Path 14" d="M1087.947,279.351c1.851,3.553,13.647,10.513,13.647,10.513s1.073-13.652-.773-17.209a7.255,7.255,0,0,0-12.873,6.7Z" transform="translate(-558.558 -159.875)" fill="#6c63ff"/>
    <path id="Path_15" data-name="Path 15" d="M1051.036,336.635c2.829,2.839,16.167,5.948,16.167,5.948s-3.058-13.347-5.888-16.187a7.255,7.255,0,1,0-10.28,10.239Z" transform="translate(-539.416 -187.69)" fill="#6c63ff"/>
    <path id="Path_16" data-name="Path 16" d="M1025.089,399.693c2.305,3.273,14.929,8.592,14.929,8.592s-.758-13.677-3.069-16.965a7.255,7.255,0,1,0-11.861,8.358Z" transform="translate(-526.812 -219.747)" fill="#6c63ff"/>
    <path id="Path_17" data-name="Path 17" d="M1066.35,424.166s1.153-34.06,19.574-53.295a51.632,51.632,0,0,0,14.161-29.439,86.789,86.789,0,0,0,.434-15.872" transform="translate(-548.149 -188.341)" fill="none" stroke="#535461" stroke-miterlimit="10" stroke-width="2"/>
    <path id="Path_18" data-name="Path 18" d="M1143.833,291.546c-1.262,3.8-11.8,12.544-11.8,12.544s-3.228-13.312-1.966-17.115a7.255,7.255,0,1,1,13.772,4.566Z" transform="translate(-579.926 -166.517)" fill="#6c63ff"/>
    <path id="Path_19" data-name="Path 19" d="M1149.966,337.943c-3.124,2.495-16.725,4.116-16.725,4.116s4.525-12.928,7.649-15.433a7.254,7.254,0,1,1,9.077,11.318Z" transform="translate(-581.663 -188.075)" fill="#6c63ff"/>
    <path id="Path_20" data-name="Path 20" d="M1125.256,408.234c-3.962.584-16.516-4.89-16.516-4.89s10.434-8.877,14.4-9.48a7.255,7.255,0,0,1,2.121,14.35Z" transform="translate(-569.387 -222.535)" fill="#6c63ff"/>
    <path id="Path_21" data-name="Path 21" d="M1093.575,458.587c-3.807,1.247-17.1-2.031-17.1-2.031s8.782-10.508,12.589-11.761a7.254,7.254,0,1,1,4.516,13.788Z" transform="translate(-553.219 -247.9)" fill="#6c63ff"/>
    <path id="Path_22" data-name="Path 22" d="M1102.946,340.351c1.851,3.553,13.647,10.513,13.647,10.513s1.073-13.652-.773-17.209a7.255,7.255,0,0,0-12.874,6.7Z" transform="translate(-566.074 -190.438)" fill="#6c63ff"/>
    <path id="Path_23" data-name="Path 23" d="M1066.036,397.635c2.829,2.839,16.167,5.948,16.167,5.948s-3.059-13.347-5.888-16.187a7.254,7.254,0,1,0-10.279,10.239Z" transform="translate(-546.931 -218.253)" fill="#6c63ff"/>
    <path id="Path_24" data-name="Path 24" d="M1040.089,460.693c2.3,3.273,14.929,8.592,14.929,8.592s-.758-13.677-3.069-16.965a7.255,7.255,0,1,0-11.861,8.358Z" transform="translate(-534.327 -250.31)" fill="#6c63ff"/>
    <path id="Path_25" data-name="Path 25" d="M240.44,137.892a21.151,21.151,0,0,1,16.366-20.208l.269-.055a5.7,5.7,0,0,1,1.158-.11H631.662a15.967,15.967,0,0,1,13.756,7.644l.095.165a6.547,6.547,0,0,1,.858,3.158l3.468,196.095H637.864l-3.992-191.6s0-5.489-4.99-5.988c-.763-.075-10.024-.13-25.153-.165l-8.772,165.827h-4.99l9.755-165.832c-66.513-.13-229.311.035-304.87.125l9.69,164.71h-4.99l-8.7-164.7-28.761.035a12.08,12.08,0,0,0-10.424,5.988l-3.992,191.6H235.7Z" transform="translate(-131.967 -84.106)" fill="#e0e0e0"/>
    <path id="Path_26" data-name="Path 26" d="M235.5,461.638s-1.617-26.376,11.192-42.582a40.037,40.037,0,0,0,8.767-23.761A67.358,67.358,0,0,0,254.625,383" transform="translate(-131.836 -217.12)" fill="none" stroke="#535461" stroke-miterlimit="10" stroke-width="2"/>
    <path id="Path_27" data-name="Path 27" d="M278.841,355.539c-.694,3.029-8.188,10.553-8.188,10.553s-3.493-10.039-2.779-13.063a5.629,5.629,0,0,1,10.977,2.495Z" transform="translate(-148.039 -199.908)" fill="#6c63ff"/>
    <path id="Path_28" data-name="Path 28" d="M287.749,390.546c-2.23,2.165-12.609,4.411-12.609,4.411s2.54-10.314,4.77-12.474a5.625,5.625,0,1,1,7.839,8.068Z" transform="translate(-151.728 -216.064)" fill="#6c63ff"/>
    <path id="Path_29" data-name="Path 29" d="M273.3,446.367c-2.994.743-13.108-2.56-13.108-2.56s7.39-7.619,10.413-8.363a5.625,5.625,0,1,1,2.694,10.922Z" transform="translate(-144.237 -243.314)" fill="#6c63ff"/>
    <path id="Path_30" data-name="Path 30" d="M252.732,487.647c-2.849,1.242-13.352-.309-13.352-.309s5.988-8.762,8.852-9.979a5.623,5.623,0,1,1,4.491,10.31Z" transform="translate(-133.811 -264.161)" fill="#6c63ff"/>
    <path id="Path_31" data-name="Path 31" d="M250.891,396.28c1.687,2.61,11.307,7.11,11.307,7.11s-.175-10.618-1.866-13.228a5.625,5.625,0,1,0-9.441,6.117Z" transform="translate(-139.125 -219.423)" fill="#6c63ff"/>
    <path id="Path_32" data-name="Path 32" d="M226.606,443.152c2.39,2,12.918,3.4,12.918,3.4s-3.343-10.079-5.738-12.065a5.626,5.626,0,0,0-7.18,8.662Z" transform="translate(-126.391 -242.27)" fill="#6c63ff"/>
    <path id="Path_33" data-name="Path 33" d="M211.214,493.758c2.021,2.36,12.155,5.539,12.155,5.539s-1.592-10.478-3.618-12.858a5.626,5.626,0,1,0-8.542,7.325Z" transform="translate(-119.017 -267.962)" fill="#6c63ff"/>
    <path id="Path_34" data-name="Path 34" d="M278.841,355.539c-.694,3.029-8.188,10.553-8.188,10.553s-3.493-10.039-2.779-13.063a5.629,5.629,0,0,1,10.977,2.495Z" transform="translate(-148.039 -199.908)" fill="#fff" opacity="0.5"/>
    <path id="Path_35" data-name="Path 35" d="M287.749,390.546c-2.23,2.165-12.609,4.411-12.609,4.411s2.54-10.314,4.77-12.474a5.625,5.625,0,1,1,7.839,8.068Z" transform="translate(-151.728 -216.064)" fill="#fff" opacity="0.5"/>
    <path id="Path_36" data-name="Path 36" d="M273.3,446.367c-2.994.743-13.108-2.56-13.108-2.56s7.39-7.619,10.413-8.363a5.625,5.625,0,1,1,2.694,10.922Z" transform="translate(-144.237 -243.314)" fill="#fff" opacity="0.5"/>
    <path id="Path_37" data-name="Path 37" d="M252.732,487.647c-2.849,1.242-13.352-.309-13.352-.309s5.988-8.762,8.852-9.979a5.623,5.623,0,1,1,4.491,10.31Z" transform="translate(-133.811 -264.161)" fill="#fff" opacity="0.5"/>
    <path id="Path_38" data-name="Path 38" d="M250.891,396.28c1.687,2.61,11.307,7.11,11.307,7.11s-.175-10.618-1.866-13.228a5.625,5.625,0,1,0-9.441,6.117Z" transform="translate(-139.125 -219.423)" fill="#fff" opacity="0.5"/>
    <path id="Path_39" data-name="Path 39" d="M226.606,443.152c2.39,2,12.918,3.4,12.918,3.4s-3.343-10.079-5.738-12.065a5.626,5.626,0,0,0-7.18,8.662Z" transform="translate(-126.391 -242.27)" fill="#fff" opacity="0.5"/>
    <path id="Path_40" data-name="Path 40" d="M211.214,493.758c2.021,2.36,12.155,5.539,12.155,5.539s-1.592-10.478-3.618-12.858a5.626,5.626,0,1,0-8.542,7.325Z" transform="translate(-119.017 -267.962)" fill="#fff" opacity="0.5"/>
    <g id="Group_3" data-name="Group 3" transform="translate(190.614 142.977)" opacity="0.1">
      <path id="Path_41" data-name="Path 41" d="M409.91,337.225a1.272,1.272,0,0,1-.09-.125Z" transform="translate(-409.82 -337.1)" fill="url(#linear-gradient)"/>
    </g>
    <path id="Path_42" data-name="Path 42" d="M575.325,317.448a4.836,4.836,0,0,0,1.876,4.371l18.412,16.306c7.105,2.575,7.983,16.082,7.983,16.082a13.418,13.418,0,0,1,1,5.988c-.085,7.984-2.34,19.11-2.34,19.11l.065.1-.065.324.065.1-.065.324a19.736,19.736,0,0,0,1.143,1.652c-2,4.087-5.713,10.663-7.32,12.065-2.221,1.931-6.661,16.3-6.661,16.3l.145-.035-.145.464h.095a20.892,20.892,0,0,0-2.41,7.415,22.482,22.482,0,0,1-1.073,5.1,10.055,10.055,0,0,0-.165,5.953,25.763,25.763,0,0,1,.868,4.785,29.94,29.94,0,0,0,2.27,9.056c2.031,4.825,4.72,11.416,4.86,12.744.075.719.249,1.776.449,2.869l-.115.03-4.775,10.828s-1.332,2.994-3.992,2.994a1.832,1.832,0,0,0-1.831,2.041,1.854,1.854,0,0,0,.115.888h0v.03c0,.05.045.1.065.15l.045.085a1.135,1.135,0,0,0,.09.145l.06.085.11.135.075.085.13.13.09.085.15.12.11.08.175.11.13.08.195.1.15.075.215.09.17.07.24.08.19.06.269.065.215.05.294.05.234.04.324.035.255.03h2.051a5.061,5.061,0,0,0,.793-.065c8.662-.858,15.1-7.484,15.1-7.484v-.25h0v-.125l.03-.035s-.559-8.627-3.727-10.578a26.573,26.573,0,0,1-.5-4.865c0-5.988,1.776-12.01-3.109-21.875a14,14,0,0,1,1.557-6.432,63.878,63.878,0,0,1,3.463-6.018l.219-.025-.354.469s5.773-.429,6.217-4.291a4.687,4.687,0,0,1,.224-.943c1.337-3.882,7.794-9.386,10.658-9.78,3.109-.429,9.326,6.861,11.771,12.01.14.294.284.574.429.828,2.385,4.2,5.344,3.248,5.344,3.248-.1-.125-.195-.244-.289-.369a1.949,1.949,0,0,0,.289-.06,9.9,9.9,0,0,1-.724-1c2.22,2.405,4.581,4.62,5.608,5.913,2.22,2.789,1.113,4.715,1.113,5.573,0,3.867-5.109,15.224-3.777,21.456.659,3.079-.095,6.681-1.028,9.535h-.195c-3.777,1.427-4.216,6.546-4.186,9.121v.234h0v1.078h0v.6s10.658,4.715,19.764,5.988c.319.045.624.08.918.1h.269l.574.035h1.028a2.045,2.045,0,0,0,.5-.04h.16q.309-.04.584-.1l.12-.03c.14-.035.269-.065.394-.1l.165-.055.294-.115.15-.07c.09-.045.175-.09.259-.14l.135-.1a2.9,2.9,0,0,0,.289-.214h0a2.484,2.484,0,0,0,.254-.254l.065-.08a2.237,2.237,0,0,0,.14-.19l.06-.1a1.673,1.673,0,0,0,.095-.19l.045-.1a2.129,2.129,0,0,0,.07-.22v-.075a2.241,2.241,0,0,0,.045-.294v-.055a2.305,2.305,0,0,0,0-.24v-.095h0c.13-1.317-.913-2.63-1.956-2.43-2.22.429-5.109-2.146-5.109-2.146l-6.072-9.919a13.8,13.8,0,0,1,1.632-7.664c2.889-4.715,6.442-14.794,6.442-14.794s-.444-6.217,1.332-9.221,0-7.719,0-7.719l-5.434-10.478h1l-.195-.429h.195s-6.661-14.794-9.326-16.511c-1.9-1.222-4.585-8.108-5.988-11.975.559-.294.868-.5.868-.5s1.557-18.656,1.557-30.437,7.984-16.511,7.984-16.511l18.5-10.947a9.185,9.185,0,0,0,5.554-6.861l-.055-.14c.04-.185.055-.289.055-.289l-.055-.14c.04-.185.055-.289.055-.289l-8.882-22.728c0,.07-.055.13-.08.195-.629-3.917-2.57-10.049-8.582-10.478-8.882-.644-11.975,3.862-10.214,4.291s9.326,3.433,9.326,3.433l2.994,4.825c-.195-.065-.3-.11-.3-.11a1.047,1.047,0,0,1,.434.314l.2.319c-.389-.11-.629-.2-.629-.2a.824.824,0,0,1,.155.085.961.961,0,0,1,.125.08,1.443,1.443,0,0,1,.115.115q.06.06.115.125c.04.05.075.1.115.16l.06.09a7.13,7.13,0,0,1-.679-.22c2.325.748,3.3,14.854,3.493,18.462l-11.5,5.124s-11.546,0-16.431,2.789c-4.286,2.445-6.352.434-6.791-.095q.449.574.793,1.108h0l-.125-.085-.115-.08-.095-.075-.1-.09-.035-.03a18.088,18.088,0,0,1-1.966-6.067,10.115,10.115,0,0,0-.16-8.183,2.5,2.5,0,0,0,.609.314,9.39,9.39,0,0,1-1-2.994c-.11-1.173.225-2.42-.274-3.493a2.668,2.668,0,0,0-.18-.314.142.142,0,0,0-.04-.115c-.5-1.088-1.721-1.687-2.495-2.635-.5-.639-.783-1.417-1.262-2.076a4.611,4.611,0,0,0-5.274-1.467,6.49,6.49,0,0,1-2.2.8,4.932,4.932,0,0,1-1.2-.21,9.481,9.481,0,0,0-7.085,1.327,12.823,12.823,0,0,0-4.651,5.489,10.977,10.977,0,0,0-1.038,3.493,31.092,31.092,0,0,0,.06,3.817c.045,2.091-.265,4.286.629,6.187.055.12.125.225.185.339a.1.1,0,0,0,.035.09c.848,1.811,2.625,2.994,4.326,4.136l2.2,1.452.249.165a12.036,12.036,0,0,0-1.9-.04c-3.333.215-9.979-2.994-9.979-2.994l-6.936-6.277,3.383-13.881-.13.095.13-.524-.13.095.13-.524c-.065.05-.125.095-.19.14l3.518-5.718s7.549-2.994,9.326-3.433-1.332-4.93-10.214-4.291c-6.537.474-8.263,7.679-8.717,11.476-.384-.424-.609-.733-.609-.733l-6.227,14.729a10.511,10.511,0,0,0-1,4.421C575.32,317.174,575.32,317.318,575.325,317.448Zm50.326,7.485.179.269h0Zm-17.8.06a2.953,2.953,0,0,0,1.282-.848,11.084,11.084,0,0,0,1.717.5,7.163,7.163,0,0,1-.664,1.562c-.085-.334-.125-.539-.125-.539a21.034,21.034,0,0,0-2.21-.679ZM604.1,418.349c.5-.8,1-1.587,1.5-2.325A21.575,21.575,0,0,1,604.1,418.349Z" transform="translate(-302.122 -167.535)" fill="url(#linear-gradient-2)"/>
    <path id="Path_43" data-name="Path 43" d="M706.21,535.33l6.362,12.724s1.7,4.665,0,7.634-1.272,9.121-1.272,9.121-3.393,9.979-6.152,14.635-1.063,11.476-1.063,11.476l-11.027,1.272s4.241-8.273,2.994-14.425,3.607-17.384,3.607-21.211c0-.848,1.063-2.759-1.063-5.514s-10.179-9.755-9.979-13.786Z" transform="translate(-358.89 -293.442)" fill="#f7bbc3"/>
    <path id="Path_44" data-name="Path 44" d="M605.157,529.38s-4.072,5.638-4.546,11.127a22.954,22.954,0,0,1-1,5.045,10.279,10.279,0,0,0-.16,5.888,26.321,26.321,0,0,1,.828,4.735,30.5,30.5,0,0,0,2.166,8.981c1.941,4.775,4.491,11.292,4.64,12.6.215,2.121,1.272,7.21,1.272,7.21l8.482,3.183a36.721,36.721,0,0,1-2.545-12.09c0-5.938,1.7-11.875-2.994-21.635a14.221,14.221,0,0,1,1.5-6.362c1.711-3.817,8.273-13.786,8.273-13.786Z" transform="translate(-314.041 -290.461)" fill="#f7bbc3"/>
    <path id="Path_45" data-name="Path 45" d="M622.607,509.072c.7.758-2.9,5.588-2.9,5.588s5.514-.424,5.938-4.241a4.751,4.751,0,0,1,.215-.933c1.277-3.837,7.445-9.281,10.179-9.67,2.994-.424,8.906,6.786,11.242,11.875.135.294.269.564.409.818,2.28,4.151,5.1,3.213,5.1,3.213-1.5-1.846-1.806-3.308-1.337-4.491,1.856-4.576,15.757-4.441,15.757-4.441s-6.362-14.635-8.907-16.331-6.576-14.425-6.576-14.425-30.332-3.393-30.542-1.911-6.152,13.153-8.273,15.059-6.357,16.127-6.357,16.127c7.21-2.121,15.164,3.074,16.012,3.712Z" transform="translate(-317.779 -262.588)" opacity="0.1"/>
    <path id="Path_46" data-name="Path 46" d="M622.6,508.222c.7.758-2.9,5.588-2.9,5.588s5.513-.424,5.938-4.241a4.758,4.758,0,0,1,.215-.933c1.277-3.837,7.445-9.281,10.179-9.67,2.994-.424,8.907,6.786,11.242,11.875.135.294.269.564.409.818,2.28,4.151,5.1,3.213,5.1,3.213-1.5-1.846-1.806-3.308-1.337-4.491,1.856-4.576,15.757-4.441,15.757-4.441s-6.362-14.635-8.907-16.331-6.576-14.425-6.576-14.425-30.332-3.393-30.542-1.911-6.152,13.153-8.273,15.059-6.362,16.122-6.362,16.122c7.21-2.121,15.164,3.074,16.012,3.712Z" transform="translate(-317.774 -262.162)" fill="#565171"/>
    <path id="Path_47" data-name="Path 47" d="M705.823,638.84l5.833,9.865s2.759,2.545,4.88,2.121,4.241,5.938-4.456,4.665-18.876-5.938-18.876-5.938-.953-8.592,3.922-10.478Z" transform="translate(-361.153 -345.304)" opacity="0.1"/>
    <path id="Path_48" data-name="Path 48" d="M605.516,631.632l-4.561,10.713s-1.272,2.994-3.817,2.994-3.393,5.3,4.88,4.456,14.425-7.425,14.425-7.425-.639-10.179-4.456-10.818A16.272,16.272,0,0,0,605.516,631.632Z" transform="translate(-312.175 -341.509)" opacity="0.1"/>
    <path id="Path_49" data-name="Path 49" d="M705.823,639.69l5.833,9.865s2.759,2.545,4.88,2.121,4.241,5.938-4.456,4.665S693.2,650.4,693.2,650.4s-.953-8.592,3.922-10.478Z" transform="translate(-361.153 -345.73)" fill="#b77983"/>
    <path id="Path_50" data-name="Path 50" d="M605.516,632.522l-4.561,10.713s-1.272,2.994-3.817,2.994-3.393,5.3,4.88,4.456,14.425-7.425,14.425-7.425-.639-10.179-4.456-10.818A16.268,16.268,0,0,0,605.516,632.522Z" transform="translate(-312.175 -341.955)" fill="#b77983"/>
    <g id="Group_4" data-name="Group 4" transform="translate(288.771 210.757)" opacity="0.1">
      <path id="Path_51" data-name="Path 51" d="M622.238,473.319c-.215,1.5-6.152,13.153-8.273,15.059-1.946,1.751-5.683,13.881-6.282,15.847-.384.075-.763.16-1.143.269,0,0,4.241-14.211,6.362-16.122s8.058-13.577,8.273-15.059c.04-.294,1.282-.4,3.233-.369C623.091,472.97,622.277,473.08,622.238,473.319Z" transform="translate(-606.54 -472.94)"/>
      <path id="Path_52" data-name="Path 52" d="M667.5,525.112c2.994-.424,8.907,6.786,11.242,11.875.135.294.269.564.409.818,1.317,2.4,2.809,3.094,3.842,3.258-.684.125-2.994.23-4.9-3.258-.14-.254-.274-.524-.409-.818-2.141-4.67-7.31-11.117-10.443-11.826Z" transform="translate(-636.953 -499.071)"/>
      <path id="Path_53" data-name="Path 53" d="M626.835,539.423l-.035-.035c-.684-.5-5.988-3.992-11.8-4.206,6.212-.215,12.135,3.662,12.863,4.206l.035.035c.614.669-2.091,4.491-2.754,5.389a9.653,9.653,0,0,1-1.2.195S627.534,540.181,626.835,539.423Z" transform="translate(-610.779 -504.121)"/>
    </g>
    <path id="Path_54" data-name="Path 54" d="M729.329,299.744s0-12.938-8.482-13.577-11.476,3.817-9.755,4.241S720,293.8,720,293.8l4.665,7.849Z" transform="translate(-369.919 -168.573)" fill="#f7bbc3"/>
    <path id="Path_55" data-name="Path 55" d="M594.23,305.694s0-12.938,8.482-13.577,11.476,3.817,9.755,4.241-8.907,3.393-8.907,3.393L598.9,307.6Z" transform="translate(-311.602 -171.554)" fill="#f7bbc3"/>
    <path id="Path_56" data-name="Path 56" d="M655.623,346.17s-.639,8.482,4.665,13.362-12.3,11.027-12.3,11.027l-7.849-9.331s6.362-3.817,2.994-10.393Z" transform="translate(-334.604 -198.667)" fill="#f7bbc3"/>
    <path id="Path_57" data-name="Path 57" d="M626.979,337.16s1.911,2.994,6.576.215,15.7-2.784,15.7-2.784l11.027-5.09s-.848-18.242-3.393-19.091c0,0,5.089,2.121,6.576-2.121l8.482,22.484a9.067,9.067,0,0,1-5.3,6.786l-17.6,10.818s-7.634,4.665-7.634,16.331-1.5,30.118-1.5,30.118-24.6,14.849-34.573-2.545c0,0,4.032-20.572,1.272-25.667,0,0-.848-13.362-7.634-15.907l-17.594-16.117s-3.393-2.121-.848-8.273l5.938-14.635s3.607,5.089,6.576,2.545l-3.393,14.425,6.786,6.362s6.362,3.183,9.545,2.994a18.413,18.413,0,0,1,6.786,1.272s1.5,8.482,8.273,7.634C621.041,346.915,633.979,346.281,626.979,337.16Z" transform="translate(-304.263 -179.688)" opacity="0.1"/>
    <path id="Path_58" data-name="Path 58" d="M626.969,335.485s1.911,2.994,6.576.215,15.7-2.759,15.7-2.759l11.027-5.089s-.848-18.242-3.393-19.091c0,0,5.09,2.121,6.576-2.121l8.482,22.484a9.068,9.068,0,0,1-5.3,6.786l-17.6,10.828s-7.634,4.665-7.634,16.331-1.5,30.118-1.5,30.118-24.6,14.849-34.574-2.545c0,0,4.032-20.573,1.272-25.667,0,0-.848-13.362-7.634-15.907l-17.6-16.122s-3.393-2.121-.848-8.273l5.938-14.635s3.607,5.089,6.576,2.545l-3.393,14.425,6.786,6.362s6.362,3.183,9.545,2.994a18.414,18.414,0,0,1,6.786,1.272s1.5,8.482,8.273,7.634C621.031,345.24,633.969,344.607,626.969,335.485Z" transform="translate(-304.253 -178.861)" opacity="0.1"/>
    <path id="Path_59" data-name="Path 59" d="M674.59,365.33l.085.115Z" transform="translate(-351.865 -208.267)" fill="#d39999"/>
    <path id="Path_60" data-name="Path 60" d="M581.38,333.8l17.6,16.122c6.786,2.545,7.634,15.907,7.634,15.907,2.759,5.089-1.272,25.667-1.272,25.667,9.979,17.394,34.573,2.545,34.573,2.545s.05-.609.13-1.682c.07-.938.165-2.235.27-3.777.14-2,.3-4.406.449-7.021.334-5.713.639-12.369.639-17.639,0-11.666,7.634-16.331,7.634-16.331l13.208-8.113,4.4-2.7a9.075,9.075,0,0,0,5.3-6.786L663.47,307.5c-1.387,3.962-5.923,2.37-6.512,2.146,2.495,1.128,3.328,19.066,3.328,19.066L649.26,333.8s-11.027,0-15.7,2.759c-3.992,2.345-5.943.549-6.442-.045,6.706,8.981-6.073,9.585-6.073,9.585-6.786.848-8.273-7.634-8.273-7.634a17.682,17.682,0,0,0-6.786-1.272c-3.178.225-9.545-2.994-9.545-2.994l-6.786-6.362,3.393-14.425c-2.994,2.545-6.576-2.545-6.576-2.545L580.537,325.5C577.987,331.675,581.38,333.8,581.38,333.8Z" transform="translate(-304.265 -179.292)" fill="#b45181"/>
    <path id="Path_61" data-name="Path 61" d="M658.594,347.87a20.4,20.4,0,0,0,.2,3.992,10.389,10.389,0,0,1-11.975,6.252,7.484,7.484,0,0,0-.753-5.568Z" transform="translate(-337.575 -199.519)" opacity="0.1"/>
    <circle id="Ellipse_2" data-name="Ellipse 2" cx="10.394" cy="10.394" r="10.394" transform="translate(301.19 137.219)" fill="#f7bbc3"/>
    <path id="Path_62" data-name="Path 62" d="M637.141,323.641a5.714,5.714,0,0,1-.319,3.114,5.636,5.636,0,0,1-1,1.277l-2.175,2.24a5.733,5.733,0,0,0-1.552,2.21c-.629,2.1,1.228,4.176,1.168,6.367a2.834,2.834,0,0,1-3.213,1.188,5.49,5.49,0,0,1-1.342-.743l-2.131-1.452c-1.622-1.108-3.318-2.305-4.131-4.092-.853-1.881-.564-4.057-.6-6.122a31.847,31.847,0,0,1-.055-3.777,11.128,11.128,0,0,1,1-3.463,12.578,12.578,0,0,1,4.441-5.4,8.806,8.806,0,0,1,6.766-1.312,4.564,4.564,0,0,0,1.148.2,5.7,5.7,0,0,0,2.1-.793,4.311,4.311,0,0,1,5.035,1.452c.459.649.723,1.422,1.2,2.051.714.938,1.876,1.532,2.36,2.6s.16,2.3.264,3.458a9.521,9.521,0,0,0,.943,2.969c-1.178-.409-1.751-1.7-2.495-2.684a6.611,6.611,0,0,0-4.865-2.465c-.649-.03-1.851-.08-2.365.414C636.662,321.516,637.076,322.873,637.141,323.641Z" transform="translate(-325.393 -181.941)" opacity="0.1"/>
    <path id="Path_63" data-name="Path 63" d="M636.721,322.806a5.712,5.712,0,0,1-.319,3.114,5.641,5.641,0,0,1-1,1.277l-2.206,2.25a5.732,5.732,0,0,0-1.552,2.2c-.629,2.1,1.228,4.176,1.167,6.367A2.834,2.834,0,0,1,629.6,339.2a5.49,5.49,0,0,1-1.342-.743l-2.1-1.432c-1.622-1.108-3.318-2.305-4.131-4.092-.853-1.881-.564-4.057-.6-6.122a31.809,31.809,0,0,1-.055-3.777,11.126,11.126,0,0,1,1-3.463,12.58,12.58,0,0,1,4.441-5.4,8.806,8.806,0,0,1,6.766-1.312,4.569,4.569,0,0,0,1.148.2,5.7,5.7,0,0,0,2.1-.793,4.311,4.311,0,0,1,5.035,1.452c.459.649.724,1.422,1.2,2.051.714.938,1.876,1.532,2.36,2.6s.16,2.3.265,3.458a9.525,9.525,0,0,0,.943,2.969c-1.177-.409-1.751-1.7-2.495-2.685a6.612,6.612,0,0,0-4.865-2.465c-.649-.03-1.851-.08-2.365.414C636.237,320.681,636.636,322.033,636.721,322.806Z" transform="translate(-325.183 -181.53)" fill="#74585e"/>
    <g id="Group_5" data-name="Group 5" transform="translate(275.32 128.203)" opacity="0.1">
      <path id="Path_64" data-name="Path 64" d="M674.66,365.42c-.06-.075-.09-.12-.09-.12Z" transform="translate(-627.175 -336.455)"/>
      <path id="Path_65" data-name="Path 65" d="M602.77,320.1a2.73,2.73,0,0,0,1.891-.709l-.2.858A2.994,2.994,0,0,1,602.77,320.1Z" transform="translate(-591.201 -313.452)"/>
      <path id="Path_66" data-name="Path 66" d="M668.716,366.653c5.314,8.158-6.651,8.752-6.651,8.752a6.6,6.6,0,0,1-2.724-.195,7.09,7.09,0,0,0,1.662,0s12.823-.634,6.028-9.64A3.453,3.453,0,0,0,668.716,366.653Z" transform="translate(-619.544 -336.59)"/>
      <path id="Path_67" data-name="Path 67" d="M632.06,367.124a8.946,8.946,0,0,1-2.55-.3,6.9,6.9,0,0,0,1.5.095,13.912,13.912,0,0,1,3.927.394A12.474,12.474,0,0,0,632.06,367.124Z" transform="translate(-604.598 -337.216)"/>
      <path id="Path_68" data-name="Path 68" d="M580.53,328.925l5.938-14.635a10.837,10.837,0,0,0,.768.933l-5.643,13.891c-2.545,6.152.848,8.273.848,8.273l17.6,16.122c6.786,2.545,7.634,15.907,7.634,15.907,2.759,5.089-1.272,25.667-1.272,25.667a15.845,15.845,0,0,0,10.429,7.944,15.763,15.763,0,0,1-11.476-8.158s4.032-20.572,1.272-25.667c0,0-.848-13.362-7.634-15.907l-17.619-16.1S577.985,335.077,580.53,328.925Z" transform="translate(-579.583 -310.897)"/>
      <path id="Path_69" data-name="Path 69" d="M707.134,311.74a7.859,7.859,0,0,0,1.342.384c2.325,2.041,3.109,18.916,3.109,18.916l-11.027,5.089s-11.027,0-15.7,2.759c-2.285,1.352-3.907,1.327-4.99.953a6.925,6.925,0,0,0,3.907-1.163c4.665-2.759,15.7-2.759,15.7-2.759l11.027-5.09S709.678,312.588,707.134,311.74Z" transform="translate(-629.83 -309.619)"/>
      <path id="Path_70" data-name="Path 70" d="M738.22,310.08c1.612.21,3.827-.025,4.725-2.59l.5,1.322C742.052,310.788,739.507,310.424,738.22,310.08Z" transform="translate(-659.065 -307.49)"/>
    </g>
    <path id="Path_71" data-name="Path 71" d="M701.431,413.653c.334-5.713.639-12.369.639-17.639,0-11.666,7.634-16.331,7.634-16.331l13.208-8.113c-7.684,2-17.908,5.434-18.826,9.48-1.5,6.576-4.241,7.21-3.183,18.462A127.2,127.2,0,0,1,701.431,413.653Z" transform="translate(-364.929 -211.393)" opacity="0.1"/>
    <path id="Path_72" data-name="Path 72" d="M697.823,488.36a8.971,8.971,0,0,0,3.393,9.755" transform="translate(-363.337 -269.909)" opacity="0.1"/>
    <path id="Path_73" data-name="Path 73" d="M635.453,488.36s-.639,4.456-3.183,6.152" transform="translate(-330.661 -269.909)" opacity="0.1"/>
    <path id="Path_74" data-name="Path 74" d="M693.2,658.182s10.179,4.665,18.876,5.938c4.411.644,6.038-.674,6.292-2.071.289,1.632-1,3.7-6.292,2.919-8.7-1.272-18.876-5.938-18.876-5.938a17.978,17.978,0,0,1-.07-2.121C693.149,657.683,693.2,658.182,693.2,658.182Z" transform="translate(-361.153 -354.358)" opacity="0.1"/>
    <path id="Path_75" data-name="Path 75" d="M601.922,652.663c8.273-.848,14.425-7.425,14.425-7.425a27.722,27.722,0,0,0-1.821-8.228c1.691,3.169,2.036,8.652,2.036,8.652s-6.152,6.576-14.425,7.425c-4.226.434-6.072-.738-6.526-2C596.3,652.174,598.18,653.047,601.922,652.663Z" transform="translate(-312.293 -344.387)" opacity="0.1"/>
    <path id="Path_76" data-name="Path 76" d="M628.2,213.727a18.711,18.711,0,1,0,3.892-11.416A18.711,18.711,0,0,0,628.2,213.727Z" transform="translate(-328.622 -122.937)" fill="url(#linear-gradient-3)"/>
    <path id="Path_77" data-name="Path 77" d="M629.58,214.432a18.028,18.028,0,1,0,3.747-10.977A18.028,18.028,0,0,0,629.58,214.432Z" transform="translate(-329.313 -123.642)" fill="#e0e0e0"/>
    <line id="Line_47" data-name="Line 47" y2="6.996" transform="translate(308.19 81.933)" fill="none" stroke="#535461" stroke-miterlimit="10" stroke-width="1"/>
    <line id="Line_48" data-name="Line 48" x1="7.3" y2="4.82" transform="translate(314.253 88.305)" fill="none" stroke="#535461" stroke-miterlimit="10" stroke-width="1"/>
    <line id="Line_49" data-name="Line 49" x2="8.547" y2="3.573" transform="translate(314.253 77.587)" fill="none" stroke="#535461" stroke-miterlimit="10" stroke-width="1"/>
    <line id="Line_50" data-name="Line 50" x1="0.469" y2="10.878" transform="translate(328.079 89.548)" fill="none" stroke="#535461" stroke-miterlimit="10" stroke-width="1"/>
    <line id="Line_51" data-name="Line 51" x1="9.635" y1="4.815" transform="translate(313.165 98.873)" fill="none" stroke="#535461" stroke-miterlimit="10" stroke-width="1"/>
    <line id="Line_52" data-name="Line 52" y2="6.072" transform="translate(308.19 99.652)" fill="none" stroke="#535461" stroke-miterlimit="10" stroke-width="1"/>
    <line id="Line_53" data-name="Line 53" x1="4.201" y1="1.861" transform="translate(300.417 93.125)" fill="none" stroke="#535461" stroke-miterlimit="10" stroke-width="1"/>
    <line id="Line_54" data-name="Line 54" x1="0.319" y1="5.084" transform="translate(327.76 75.452)" fill="none" stroke="#535461" stroke-miterlimit="10" stroke-width="1"/>
    <line id="Line_55" data-name="Line 55" x2="5.209" y2="1.487" transform="translate(330.879 86.444)" fill="none" stroke="#535461" stroke-miterlimit="10" stroke-width="1"/>
    <path id="Path_78" data-name="Path 78" d="M655.168,166.226l-4.037-7-6.681,1.088v7.769l7.145,3.732Z" transform="translate(-322.892 -79.781)" fill="#6c63ff"/>
    <path id="Path_79" data-name="Path 79" d="M637.09,203.766l4.181,2.141c1.4-1.866,7.145-4.042,7.145-4.042l-.6-4.775A18,18,0,0,0,637.09,203.766Z" transform="translate(-333.076 -123.973)" fill="#6c63ff"/>
    <path id="Path_80" data-name="Path 80" d="M620.6,181.648l-7.3-3.418-4.042,5.748,4.2,6.681,7.15-1.088Z" transform="translate(-305.256 -89.301)" fill="#6c63ff"/>
    <path id="Path_81" data-name="Path 81" d="M672.24,252.567v5.743a18.024,18.024,0,0,0,11.621-7.559l-5.095-2.091Z" transform="translate(-350.687 -149.812)" fill="#6c63ff"/>
    <path id="Path_82" data-name="Path 82" d="M136.3,482.346a15.7,15.7,0,1,0,3.258-9.575,15.7,15.7,0,0,0-3.258,9.575Z" transform="translate(-82.164 -259.03)" fill="url(#linear-gradient-4)"/>
    <path id="Path_83" data-name="Path 83" d="M137.46,482.924A15.119,15.119,0,1,0,140.6,473.7,15.118,15.118,0,0,0,137.46,482.924Z" transform="translate(-82.746 -259.608)" fill="#e0e0e0"/>
    <line id="Line_56" data-name="Line 56" y2="5.868" transform="translate(61.361 215.887)" fill="none" stroke="#535461" stroke-miterlimit="10" stroke-width="1"/>
    <line id="Line_57" data-name="Line 57" x1="6.127" y2="4.042" transform="translate(66.44 221.23)" fill="none" stroke="#535461" stroke-miterlimit="10" stroke-width="1"/>
    <line id="Line_58" data-name="Line 58" x2="7.17" y2="2.999" transform="translate(66.44 212.239)" fill="none" stroke="#535461" stroke-miterlimit="10" stroke-width="1"/>
    <line id="Line_59" data-name="Line 59" x1="0.389" y2="9.126" transform="translate(78.041 222.273)" fill="none" stroke="#535461" stroke-miterlimit="10" stroke-width="1"/>
    <line id="Line_60" data-name="Line 60" x1="8.083" y1="4.042" transform="translate(65.527 230.092)" fill="none" stroke="#535461" stroke-miterlimit="10" stroke-width="1"/>
    <line id="Line_61" data-name="Line 61" y2="5.094" transform="translate(61.361 230.746)" fill="none" stroke="#535461" stroke-miterlimit="10" stroke-width="1"/>
    <line id="Line_62" data-name="Line 62" x1="3.523" y1="1.562" transform="translate(54.839 225.272)" fill="none" stroke="#535461" stroke-miterlimit="10" stroke-width="1"/>
    <line id="Line_63" data-name="Line 63" x1="0.269" y1="4.261" transform="translate(77.772 210.453)" fill="none" stroke="#535461" stroke-miterlimit="10" stroke-width="1"/>
    <line id="Line_64" data-name="Line 64" x2="4.371" y2="1.247" transform="translate(80.386 219.669)" fill="none" stroke="#535461" stroke-miterlimit="10" stroke-width="1"/>
    <path id="Path_84" data-name="Path 84" d="M154.431,434.363l-3.388-5.863-5.6.908v6.516l5.993,3.129Z" transform="translate(-72.873 -214.694)" fill="#6c63ff"/>
    <path id="Path_85" data-name="Path 85" d="M143.75,474.013l3.493,1.8c1.173-1.562,5.988-3.388,5.988-3.388l-.5-3.992A15.1,15.1,0,0,0,143.75,474.013Z" transform="translate(-85.897 -259.923)" fill="#6c63ff"/>
    <path id="Path_86" data-name="Path 86" d="M125.435,447.294l-6.122-2.864-3.393,4.82,3.523,5.6,5.993-.913Z" transform="translate(-58.082 -222.676)" fill="#6c63ff"/>
    <path id="Path_87" data-name="Path 87" d="M173.24,514.948v4.835a15.114,15.114,0,0,0,9.745-6.342l-4.271-1.751Z" transform="translate(-100.673 -281.598)" fill="#6c63ff"/>
    <path id="Path_88" data-name="Path 88" d="M113.2,520.156a15.7,15.7,0,1,0,3.258-9.575A15.7,15.7,0,0,0,113.2,520.156Z" transform="translate(-70.591 -277.974)" fill="url(#linear-gradient-5)"/>
    <path id="Path_89" data-name="Path 89" d="M114.36,520.734a15.119,15.119,0,1,0,3.139-9.226A15.118,15.118,0,0,0,114.36,520.734Z" transform="translate(-71.172 -278.552)" fill="#e0e0e0"/>
    <line id="Line_65" data-name="Line 65" y2="5.863" transform="translate(49.834 234.753)" fill="none" stroke="#535461" stroke-miterlimit="10" stroke-width="1"/>
    <line id="Line_66" data-name="Line 66" x1="6.122" y2="4.042" transform="translate(54.919 240.096)" fill="none" stroke="#535461" stroke-miterlimit="10" stroke-width="1"/>
    <line id="Line_67" data-name="Line 67" x2="7.165" y2="2.999" transform="translate(54.919 231.105)" fill="none" stroke="#535461" stroke-miterlimit="10" stroke-width="1"/>
    <line id="Line_68" data-name="Line 68" x1="0.389" y2="9.121" transform="translate(66.515 241.139)" fill="none" stroke="#535461" stroke-miterlimit="10" stroke-width="1"/>
    <line id="Line_69" data-name="Line 69" x1="8.078" y1="4.042" transform="translate(54.006 248.958)" fill="none" stroke="#535461" stroke-miterlimit="10" stroke-width="1"/>
    <line id="Line_70" data-name="Line 70" y2="5.094" transform="translate(49.834 249.612)" fill="none" stroke="#535461" stroke-miterlimit="10" stroke-width="1"/>
    <line id="Line_71" data-name="Line 71" x1="3.523" y1="1.562" transform="translate(43.313 244.138)" fill="none" stroke="#535461" stroke-miterlimit="10" stroke-width="1"/>
    <line id="Line_72" data-name="Line 72" x1="0.269" y1="4.261" transform="translate(66.246 229.319)" fill="none" stroke="#535461" stroke-miterlimit="10" stroke-width="1"/>
    <line id="Line_73" data-name="Line 73" x2="4.371" y2="1.247" transform="translate(68.86 238.535)" fill="none" stroke="#535461" stroke-miterlimit="10" stroke-width="1"/>
    <path id="Path_90" data-name="Path 90" d="M131.331,472.168l-3.388-5.868-5.6.913v6.517l6,3.129Z" transform="translate(-61.299 -233.633)" fill="#6c63ff"/>
    <path id="Path_91" data-name="Path 91" d="M120.65,511.823l3.493,1.8c1.173-1.562,5.988-3.388,5.988-3.388l-.5-3.992a15.1,15.1,0,0,0-8.981,5.583Z" transform="translate(-74.323 -278.867)" fill="#6c63ff"/>
    <path id="Path_92" data-name="Path 92" d="M102.34,485.1l-6.122-2.869-3.388,4.825,3.518,5.6,5.993-.913Z" transform="translate(-46.513 -241.615)" fill="#6c63ff"/>
    <path id="Path_93" data-name="Path 93" d="M150.14,552.738v4.835a15.114,15.114,0,0,0,9.745-6.332l-4.271-1.751Z" transform="translate(-89.099 -300.537)" fill="#6c63ff"/>
  </g>
</svg>
